<?xml version="1.0" encoding="UTF-8"?>
<svg id="Layer_3" data-name="Layer 3" xmlns="http://www.w3.org/2000/svg" viewBox="0 0 1080 1080">
  <defs>
    <style>
      .cls-1 {
        fill: #000;
        stroke-width: 0px;
      }
    </style>
  </defs>
  <path class="cls-1" d="M1066.56,721.37h-.14c-5.42,0-10.62,2.55-14.94,5.02-3.68,2.05-5.97,5.63-7.83,8.52-11.54,18.13-23.48,36.88-38.39,53.04-18.8,20.39-35.96,35.58-58.65,43.42-4.08,1.41-7.64,1.4-12.28-.04-12.39-3.85-25.04-14.81-23.39-34.04.54-6.15.1-12.8-1.29-19.2-.94-4.4-3.6-7.72-7.3-9.11-3.69-1.39-7.87-.65-11.47,2.02-4.63,3.44-8.69,7.99-11.43,12.78-12.16,21.13-25.11,39.15-39.59,55.07l-4.5,4.95c-13.55,14.95-26.34,29.07-42.91,39.39-49.21,30.66-95.29,31.7-140.91,3.22-6.3-3.93-12.47-8.55-18.43-13.01-2.25-1.68-4.5-3.36-6.76-5.02-22.92-16.75-42.64-37.24-58.61-60.9l-2.87-4.26c-7.66-11.35-15.58-23.08-24.1-34.19-3.24-4.21-3.41-6.86-.76-12.34,7.69-15.97,16.86-30.47,28.02-44.33,16.9-20.93,39.06-24.47,59.29-9.45,4.42,3.28,8.39,7.22,12.59,11.39,2.92,2.9,5.94,5.89,9.16,8.69,2.49,2.16,9.6,5.84,14.56,2.67,4.37-2.9,6.68-8.22,7.34-11.89.61-3.46-.53-6.65-1.45-9.21-.23-.64-.46-1.28-.65-1.92-10.23-33.95-15.81-62.13-17.54-88.67-.92-13.92-2.84-117.69-1.79-140.61,2.95-.01,5.81-.03,8.59-.05,8.69-.06,16.89-.11,24.9.1,41.45,1.15,83.85-9.25,129.76-31.78,9.79-4.8,18.66-11.25,27.25-17.49,4.62-3.35,9.4-6.82,14.17-9.92,28.29-18.33,47.83-44.15,68.65-73.54,7.62-10.74,12.8-23.12,17.87-35.92,10.23-25.78,19.73-53.77,20.02-83.67l.02-1.95c.26-23.85.53-48.51-10.57-71.12-16.94-34.5-46.71-79.45-92.3-97.71-38.24-15.36-76.85-16.51-114.77-3.41-29.13,10.07-51.04,21.72-68.92,36.66-12.47,10.42-24.55,21.43-34.89,30.93-2.31,2.12-4.18,4.45-5.99,6.71-1.63,2.03-3.17,3.95-4.85,5.48-18.12,16.46-33.37,37.12-49.44,66.98-7.18,13.39-13.64,27.36-19.88,40.88-2.47,5.35-4.94,10.7-7.46,16.02-13.57,28.69-25.01,61.18-34.96,99.33-.19.75-.36,1.52-.54,2.31-.13.62-.26,1.18-.38,1.67-10.2-13.39-15.84-25.85-18.05-39.7-1.33-8.2-1.27-16.3-1.2-24.87.02-3.08.05-6.15,0-9.24-.31-22.84,8.97-42.34,18.79-62.99l2.17-4.57c2.41-5.09,5.57-9.89,8.92-14.96,1.94-2.95,3.96-5.99,5.83-9.15,1.98-3.36,3.81-7.02,3.81-11.02s-1.29-9.68-4.87-12.88c-4.26-3.89-11.81-1.49-14.82.3-3.1,1.85-5.7,4.13-8.21,6.34-1.07.94-2.14,1.88-3.24,2.77-7.35,5.93-17.45,7.77-26.36,4.8-8.34-2.78-14.21-9.38-16.53-18.58-1.07-4.25-2.3-9.29-3.38-14.48-3.29-15.72-1.52-31.39.36-47.98l.5-4.36c.83-7.03,1.87-15.77-5.56-23.11l-1.93-1.9-2.7.26c-9.44.91-15.46,5.98-17.89,15.1-1.66,6.33-3.55,12.78-5.37,19.01-3.79,12.94-7.71,26.32-10.01,39.91-3.4,19.9-7.28,46.09-7.1,72.17.27,36.68,8.62,74.39,24.83,112.09,15.24,35.42,35.71,63.32,62.57,85.29.94.77,3.35,2.74,3.99,3.63-.12.9-.95,3.17-1.69,5.19l-1.51,4.12c-5.89,16.02-11.97,32.59-16.53,49.42-5.46,20.06-10.36,40.57-15.1,60.41-2.2,9.2-4.4,18.39-6.65,27.57-.41,1.67-.94,3.36-1.5,5.14-1,3.2-2.04,6.5-2.51,10.08-2.94,22.51-10.46,44.39-17.74,65.54-1.83,5.31-3.71,10.78-5.5,16.2-3.03-1.96-6.03-3.92-9.02-5.86-10.05-6.56-19.54-12.76-29.65-18.52-30.6-17.42-62.66-28.81-95.27-33.85-34.63-5.35-65.99-4.47-95.87,2.68-19.59,4.68-42.33,10.46-64.31,19.73-22.37,9.47-40.71,20.56-56.05,33.89-30.15,26.19-52.42,57.77-66.19,93.86-16.74,43.87-19.75,90.69-8.97,139.17l1.24,5.64c4.21,19.27,8.57,39.2,20.76,56.63l.82,1.17c4.42,6.28,8.98,12.77,12.94,19.37,13.06,21.7,33.24,35.73,53.11,47.66,18.52,11.12,40.99,17.55,68.67,19.66,10.93.83,23.18,1.53,36.22,1.53,20.95,0,43.92-1.8,66.68-7.74,20.63-5.38,39.77-13.04,57.39-20.51,17.32-7.34,31.93-15.83,44.67-25.97,3.34-2.66,6.71-5.3,10.09-7.94,13.12-10.25,26.68-20.86,38.49-33.06,15.1-15.6,32.35-34.49,45.91-56.26,8.39-13.5,17.3-27.04,25.93-40.15,4.57-6.95,9.15-13.9,13.68-20.9,3.21-4.97,6.34-10,9.61-15.26.4-.63.79-1.27,1.19-1.91,1.06,1.23,1.95,2.34,2.69,3.47,17.31,26.46,31.19,47.9,43.68,67.48,23.19,36.37,49.48,77.59,91.86,104.73,62.78,40.2,136.78,45.27,208.38,14.29,15.13-6.52,28.86-13.79,40.82-21.61,23.85-15.62,43.26-31.39,59.34-48.22,3.92-4.1,7.91-8.14,11.91-12.19,12.24-12.38,24.88-25.19,35.21-39.58,1.59-2.21,3.19-4.42,4.79-6.63,11.67-16.11,23.73-32.76,31.88-51.85,1.78-4.15,4.05-8.13,6.45-12.33,1.74-3.04,3.53-6.18,5.15-9.43,7.03-14.16,13.86-28.02,20.15-42.07,2.06-4.58,2.79-9.4,3.5-14.05l.31-2.03c.83-5.21-2.34-12.83-5.75-16.89-2.29-2.72-4.83-4.11-7.55-4.15ZM784.33,269.68c-.42.22-.83.44-1.24.64-5.04,2.39-10.9,5.92-11.43,12.12-.54,6.21,4.83,10.76,8.89,13.63l.71.51c1.3.95,2.91,2.14,4.93,2.87,10.07,3.67,14.09,11.7,13.04,26.02-1.99,27.24-13.77,51.61-34.06,70.47-6.04,5.62-14.71,9.4-23.1,13.06-2,.87-3.99,1.74-5.94,2.63-26.28,11.94-53.77,13.42-86.4,11.37l6.43-30.96c.71-3.38,1.24-6.21,1.66-8.88,5.76-34.72,12.53-71.78,22.98-107.52,2.78-9.5,5.43-19.17,7.99-28.53,2.55-9.31,5.18-18.94,7.94-28.33,1.56-5.32,3.55-10.47,5.65-15.92.95-2.46,1.89-4.91,2.8-7.39,10.51-28.74,20.44-54.39,35.57-77.37,12.45-18.91,31.08-31.1,52.45-34.32,9.55-1.43,22.39.99,34.36,6.48,10.56,4.84,15.88,17.32,20.04,28.64,10.23,27.92,11.65,57.7,4.23,88.5-4.95,20.46-17.46,37.26-36.18,48.58-1.32.8-2.63,1.62-3.94,2.44-6.82,4.28-13.27,8.32-20.86,8.97-2.63.24-4.78,1.39-6.51,2.3ZM207.7,754.25c3.33-2.49,8.07-9.67,5.63-15.16-2-4.33-7.61-9.13-13.15-9.35-1.03-.05-2.06-.07-3.09-.07-4.57,0-9.08.4-13.46.8-2.62.24-5.23.47-7.86.62-9.63.55-16.4-3.09-20.59-11.09-1.6-3.07-2.42-6.96-1.87-8.87,2.87-9.91,7.19-21.03,17.39-28.32,23.85-17.03,47.12-26.26,71.13-28.21,7.06-.57,14.07-1.53,20.25-2.37,2.51-.34,4.9-.67,7.11-.94,34.14,2.27,59.54,7.21,82.31,16,19.73,7.62,37,19,54.41,30.97,4.65,3.21,5.78,4.46,5.9,4.94.28,1.04-1.44,5.48-2.36,7.87-2.86,7.39-5.54,14.94-8.14,22.25-3.32,9.33-6.75,18.97-10.52,28.22-5.53,13.56-12.21,26.8-18.04,38.14-9.13,17.76-17.44,33.74-26.68,49.47-13.61,23.17-29.84,49.76-50.24,72.08-20.1,21.95-38.67,41.18-62.47,54.27-28.3,15.57-50.89,20.68-73.3,16.6-25.4-4.64-44.05-15.92-56.99-34.49-1.13-1.63-2.36-3.11-3.54-4.54-1.66-2.01-3.24-3.91-4.17-5.81-1.01-2.06-2.11-4.12-3.22-6.19-3.4-6.36-6.61-12.37-7.22-18.2-4.21-40.55,6.05-73.21,31.38-99.86,1.32-1.4,2.6-2.79,3.78-4.45,16.14-22.9,39.12-40.62,70.28-54.19,6.13-2.69,11.96-6.1,17.33-10.12Z"/>
</svg>