<?xml version="1.0" encoding="UTF-8"?>
<svg id="Layer_1" data-name="Layer 1" xmlns="http://www.w3.org/2000/svg" viewBox="0 0 902.41 391.83">
  <defs>
    <style>
      .cls-1 {
        fill: #f9f5ed;
      }
    </style>
  </defs>
  <path class="cls-1" d="M414.99,267.02h-.05c-2.11,0-4.13.99-5.81,1.95-1.43.8-2.32,2.19-3.05,3.32-4.49,7.05-9.14,14.35-14.94,20.64-7.31,7.93-13.99,13.84-22.82,16.89-1.59.55-2.97.54-4.78-.01-4.82-1.5-9.74-5.76-9.1-13.25.21-2.39.04-4.98-.5-7.47-.37-1.71-1.4-3-2.84-3.55-1.44-.54-3.06-.25-4.46.79-1.8,1.34-3.38,3.11-4.45,4.97-4.73,8.22-9.77,15.23-15.41,21.43l-1.75,1.93c-5.27,5.82-10.25,11.31-16.7,15.33-19.15,11.93-37.08,12.34-54.83,1.25-2.45-1.53-4.85-3.32-7.17-5.06-.87-.65-1.75-1.31-2.63-1.95-8.92-6.52-16.59-14.49-22.81-23.7l-1.12-1.66c-2.98-4.41-6.06-8.98-9.38-13.3-1.26-1.64-1.33-2.67-.29-4.8,2.99-6.22,6.56-11.86,10.9-17.25,6.57-8.14,15.2-9.52,23.07-3.68,1.72,1.28,3.26,2.81,4.9,4.43,1.14,1.13,2.31,2.29,3.56,3.38.97.84,3.74,2.27,5.67,1.04,1.7-1.13,2.6-3.2,2.86-4.63.24-1.35-.21-2.59-.56-3.58-.09-.25-.18-.5-.25-.75-3.98-13.21-6.15-24.17-6.83-34.5-.36-5.42-1.11-45.79-.7-54.71,1.15,0,2.26-.01,3.34-.02,3.38-.02,6.57-.04,9.69.04,16.13.45,32.63-3.6,50.49-12.36,3.81-1.87,7.26-4.38,10.6-6.8,1.8-1.3,3.66-2.66,5.51-3.86,11.01-7.13,18.61-17.18,26.71-28.61,2.96-4.18,4.98-9,6.95-13.98,3.98-10.03,7.68-20.92,7.79-32.56v-.76c.11-9.28.22-18.87-4.1-27.67-6.59-13.42-18.17-30.91-35.91-38.02-14.88-5.98-29.9-6.42-44.66-1.33-11.34,3.92-19.86,8.45-26.82,14.27-4.85,4.06-9.55,8.34-13.57,12.03-.9.82-1.63,1.73-2.33,2.61-.64.79-1.23,1.54-1.89,2.13-7.05,6.41-12.98,14.44-19.24,26.06-2.79,5.21-5.31,10.65-7.74,15.91-.96,2.08-1.92,4.16-2.9,6.23-5.28,11.16-9.73,23.8-13.6,38.65-.08.29-.14.59-.21.9-.05.24-.1.46-.15.65-3.97-5.21-6.16-10.06-7.02-15.45-.52-3.19-.49-6.34-.47-9.68,0-1.2.02-2.39,0-3.6-.12-8.89,3.49-16.47,7.31-24.51l.84-1.78c.94-1.98,2.17-3.85,3.47-5.82.76-1.15,1.54-2.33,2.27-3.56.77-1.31,1.48-2.73,1.48-4.29s-.5-3.76-1.9-5.01c-1.66-1.52-4.6-.58-5.76.12-1.21.72-2.22,1.61-3.2,2.47-.42.36-.83.73-1.26,1.08-2.86,2.31-6.79,3.02-10.26,1.87-3.24-1.08-5.53-3.65-6.43-7.23-.42-1.65-.9-3.62-1.31-5.63-1.28-6.12-.59-12.21.14-18.67l.19-1.7c.32-2.73.73-6.14-2.16-8.99l-.75-.74-1.05.1c-3.67.35-6.01,2.33-6.96,5.88-.65,2.46-1.38,4.97-2.09,7.4-1.47,5.03-3,10.24-3.9,15.53-1.32,7.74-2.83,17.93-2.76,28.08.1,14.27,3.35,28.95,9.66,43.61,5.93,13.78,13.89,24.64,24.35,33.19.37.3,1.3,1.07,1.55,1.41-.05.35-.37,1.23-.66,2.02l-.59,1.6c-2.29,6.23-4.66,12.68-6.43,19.23-2.12,7.8-4.03,15.79-5.88,23.51-.86,3.58-1.71,7.16-2.59,10.73-.16.65-.37,1.31-.58,2-.39,1.24-.79,2.53-.98,3.92-1.14,8.76-4.07,17.27-6.9,25.5-.71,2.07-1.44,4.19-2.14,6.3-1.18-.76-2.35-1.52-3.51-2.28-3.91-2.55-7.6-4.97-11.54-7.21-11.91-6.78-24.38-11.21-37.07-13.17-13.47-2.08-25.68-1.74-37.3,1.04-7.62,1.82-16.47,4.07-25.02,7.68-8.71,3.69-15.84,8-21.81,13.18-11.73,10.19-20.4,22.48-25.75,36.52-6.51,17.07-7.69,35.29-3.49,54.15l.48,2.2c1.64,7.5,3.34,15.25,8.08,22.03l.32.46c1.72,2.44,3.5,4.97,5.03,7.54,5.08,8.44,12.93,13.9,20.66,18.54,7.21,4.33,15.95,6.83,26.72,7.65,4.25.32,9.02.59,14.09.59,8.15,0,17.09-.7,25.95-3.01,8.03-2.09,15.48-5.07,22.33-7.98,6.74-2.86,12.42-6.16,17.38-10.11,1.3-1.04,2.61-2.06,3.93-3.09,5.1-3.99,10.38-8.12,14.98-12.86,5.87-6.07,12.59-13.42,17.86-21.89,3.26-5.25,6.73-10.52,10.09-15.62,1.78-2.7,3.56-5.41,5.32-8.13,1.25-1.94,2.47-3.89,3.74-5.94.15-.25.31-.49.46-.74.41.48.76.91,1.05,1.35,6.74,10.3,12.14,18.64,16.99,26.26,9.02,14.15,19.25,30.19,35.74,40.75,24.43,15.64,53.22,17.61,81.08,5.56,5.89-2.54,11.23-5.37,15.88-8.41,9.28-6.08,16.83-12.21,23.09-18.76,1.52-1.6,3.08-3.17,4.64-4.74,4.76-4.82,9.68-9.8,13.7-15.4.62-.86,1.24-1.72,1.86-2.58,4.54-6.27,9.23-12.75,12.4-20.17.69-1.62,1.57-3.16,2.51-4.8.68-1.18,1.37-2.4,2-3.67,2.74-5.51,5.39-10.9,7.84-16.37.8-1.78,1.09-3.66,1.36-5.47l.12-.79c.32-2.03-.91-4.99-2.24-6.57-.89-1.06-1.88-1.6-2.94-1.61ZM305.18,91.27c-.16.09-.32.17-.48.25-1.96.93-4.24,2.3-4.45,4.71-.21,2.42,1.88,4.19,3.46,5.3l.28.2c.51.37,1.13.83,1.92,1.12,3.92,1.43,5.48,4.55,5.07,10.12-.77,10.6-5.36,20.08-13.25,27.42-2.35,2.19-5.72,3.66-8.99,5.08-.78.34-1.55.68-2.31,1.02-10.23,4.65-20.92,5.22-33.62,4.42l2.5-12.05c.28-1.31.48-2.42.65-3.45,2.24-13.51,4.88-27.93,8.94-41.84,1.08-3.7,2.11-7.46,3.11-11.1.99-3.62,2.02-7.37,3.09-11.02.61-2.07,1.38-4.07,2.2-6.19.37-.96.74-1.91,1.09-2.88,4.09-11.18,7.95-21.16,13.84-30.1,4.85-7.36,12.09-12.1,20.41-13.35,3.71-.56,8.71.39,13.37,2.52,4.11,1.88,6.18,6.74,7.8,11.14,3.98,10.86,4.53,22.45,1.65,34.44-1.93,7.96-6.79,14.5-14.08,18.9-.51.31-1.02.63-1.53.95-2.66,1.66-5.16,3.24-8.11,3.49-1.02.1-1.86.54-2.53.9ZM80.81,279.81c1.29-.97,3.14-3.76,2.19-5.9-.78-1.68-2.96-3.55-5.12-3.64-.4-.02-.8-.03-1.2-.03-1.78,0-3.53.16-5.24.31-1.02.09-2.04.18-3.06.24-3.75.21-6.38-1.2-8.01-4.31-.62-1.19-.94-2.71-.73-3.45,1.12-3.86,2.8-8.18,6.77-11.02,9.28-6.63,18.33-10.22,27.68-10.98,2.75-.22,5.47-.59,7.88-.92.98-.13,1.91-.26,2.77-.37,13.28.88,23.17,2.8,32.03,6.23,7.68,2.97,14.4,7.39,21.17,12.05,1.81,1.25,2.25,1.73,2.3,1.92.11.41-.56,2.13-.92,3.06-1.11,2.88-2.16,5.81-3.17,8.66-1.29,3.63-2.63,7.38-4.09,10.98-2.15,5.28-4.75,10.43-7.02,14.84-3.55,6.91-6.78,13.13-10.38,19.25-5.3,9.02-11.61,19.36-19.55,28.04-7.82,8.54-15.04,16.02-24.31,21.12-11.01,6.06-19.8,8.05-28.52,6.46-9.88-1.8-17.14-6.19-22.18-13.42-.44-.64-.92-1.21-1.38-1.77-.65-.78-1.26-1.52-1.62-2.26-.39-.8-.82-1.6-1.25-2.41-1.32-2.47-2.57-4.81-2.81-7.08-1.64-15.78,2.35-28.49,12.21-38.86.51-.54,1.01-1.09,1.47-1.73,6.28-8.91,15.22-15.81,27.34-21.08,2.39-1.05,4.66-2.37,6.74-3.94Z"/>
  <path class="cls-1" d="M742.69,200.7c1.01-.18,1.97-.35,2.86-.32,2.32.04,4.69.16,6.98.28,3.66.18,7.44.37,11.19.28,9.64-.24,18.3-.73,26.47-1.5,15.26-1.45,30.15-5.27,44.27-11.36,12.09-5.22,27.21-12.75,36.9-24.86,3.44-4.3,7.1-8.94,10.5-13.67,13.03-18.18,19.72-36.68,20.46-56.54.73-19.46-3.18-34.2-12.33-46.38-5.18-6.89-10.4-12.47-15.97-17.04-8.47-6.96-16.77-11.32-25.4-13.34l-1.03-.24c-4.73-1.1-9.62-2.24-14.56-2.8-10.14-1.14-18.4-.9-25.99.76-8.27,1.81-15.71,5.44-22.27,8.64l-1.33.65c-4.69,2.28-9.54,4.63-13.86,7.73-8.47,6.06-16.63,13.4-24.96,22.43-7.75,8.41-15.1,18.21-22.49,29.96-5.26,8.37-9.92,17.26-14.43,25.86-1.56,2.97-3.12,5.95-4.7,8.9-1.45,2.7-2.74,5.49-4.1,8.44-.67,1.46-1.38,2.99-2.14,4.59l-3.33,9.22c-.68,2.07-1.52,4.06-2.4,6.17-.55,1.32-1.13,2.69-1.65,4.07-.61,1.6-1.11,3.22-1.59,4.8-.9,2.95-1.76,5.74-3.27,8.23-.45.73-.54,1.47-.61,2.01-.02.14-.04.34-.06.4-1.59,5.21-3.2,10.42-4.75,15.44l-1,3.24c-.6.11-1.19.22-1.77.33-2.03.38-3.94.73-5.83.99-15.26,2.15-27.15,5.61-37.42,10.92-1.56.81-3.17,1.5-4.88,2.23-2.52,1.08-5.13,2.19-7.54,3.71-7.59,4.8-15.06,10-22.28,15.03l-1.93,1.35c-2.59,1.82-5.06,3.8-7.34,5.91-2.33,2.14-4.65,4.34-6.93,6.52,1.68-2.21,3.4-4.43,5.15-6.56,11.78-14.28,21.7-28.3,30.32-42.87.86-1.46,1.84-2.93,2.78-4.35,1.29-1.94,2.62-3.95,3.76-6.06,5.57-10.31,10.72-21.91,16.21-36.49,5.47-14.55,8.38-30.79,8.9-49.63.19-6.89-.65-14.08-1.46-20.28-.95-7.28-3.6-14.73-8.12-22.78-4.68-8.35-9.13-14.49-13.99-19.33-9.15-9.11-17.36-14.53-26.62-17.56-9.86-3.23-22.13-7.25-34.94-5.26-1.33.21-2.66.4-3.99.6-5.28.77-10.75,1.56-15.95,3.21-9.92,3.16-18.9,8.08-26.69,14.62-6.28,5.26-11.4,11.25-16.98,17.96-2.56,3.08-4.79,6.44-6.95,9.69-1.33,2-2.71,4.07-4.12,6.03-5.41,7.45-9.29,15.77-13.04,23.81l-1.32,2.82c-.9,1.93-3,6.45,1.96,9.41l.63.38.73-.07c4.28-.41,6.44-3.26,8.14-5.9,5.31-8.26,12.84-18.05,24.03-20.4,2.89-.61,5.38-.57,7.39.12,3.78,1.29,4.88,4.55,5.51,9.74.23,1.92.39,3.82.54,5.59.19,2.29,1.84,4.11,4.12,4.53,2.24.41,4.4-.68,5.37-2.72.44-.93.74-1.99.88-3.15.65-5.51,2.3-11.08,5.03-17.04l.65-1.42c3.2-7,6.21-13.61,11.16-19.53,7.98-9.54,17.77-13.89,30.91-13.75,5.37.07,10.12,1.41,14.12,3.99,6.56,4.22,13.34,8.58,17.82,15.14.96,1.41,1.99,2.75,2.99,4.06,1.64,2.14,3.19,4.16,4.41,6.39,3.9,7.09,4.87,15.78,5.3,23.35.44,7.69.02,16.13-1.33,26.58-.66,5.11-1.45,9.11-2.49,12.59-2.12,7.08-4.26,13.97-7.07,20.51-2.1,4.9-4.66,9.75-7.14,14.44-1.18,2.23-2.39,4.54-3.56,6.83-2.77,5.47-5.05,10.05-7.18,14.42-2.39,4.93-5.64,9.2-9.08,13.73-2.08,2.74-4.23,5.57-6.16,8.54-3.02,4.66-6.25,9.31-9.37,13.81-1.09,1.57-2.18,3.13-3.26,4.71-1.16,1.7-2.35,3.38-3.53,5.07-1.6,2.28-3.26,4.64-4.85,7-.84,1.25-1.62,2.55-2.38,3.8-.93,1.55-1.82,3.02-2.81,4.41-2.7,3.76-5.49,7.56-8.19,11.24-3.09,4.21-6.29,8.56-9.38,12.9-3.43,4.81-6.79,9.78-10.04,14.58-.91,1.35-1.83,2.7-2.74,4.05-1.93,2.84-3.86,5.67-5.8,8.51-5.7,8.36-11.6,17-17.24,25.61-1.85,2.83-3.32,5.88-4.75,8.83-.64,1.32-1.27,2.64-1.94,3.94l-1.1,2.14c-6.66,12.88-13.55,26.2-18.68,40.17-2.09,5.71-3.11,10.62-3.19,15.46-.05,3.26,1.21,5.49,3.88,6.82.94.47,1.81.66,2.6.66,2,0,3.52-1.2,4.54-2.01l.12-.1c1-.79,2.27-1.89,3.19-3.29,1.07-1.62,2.08-3.29,3.05-4.9.7-1.16,1.4-2.32,2.12-3.47,1.07-1.69,2.1-3.43,3.1-5.12,2.43-4.11,4.73-7.99,7.63-11.41.4-.47.8-.95,1.2-1.43,4.15-4.99,7.75-9.3,14.71-8.11,1.84.32,2.57.8,3.15,1.48,2.15,2.54,3.65,5.64,4.87,10.06.54,1.94,1.58,4.78,3.46,7.31,1.44,1.93,3.48,2.86,5.46,2.48,2.02-.38,3.63-2.04,4.29-4.45.44-1.62.53-3.23.62-4.79.04-.63.07-1.26.13-1.88.19-1.96.37-3.92.54-5.88.41-4.6.83-9.35,1.51-13.95.23-1.59.78-3.18,1.36-4.88.59-1.72,1.2-3.5,1.52-5.4,2.02-12.26,7.58-23.54,12.95-34.44l.45-.91c1.4-2.84,3.11-5.65,4.77-8.36,1.77-2.91,3.61-5.91,5.13-9.07,3.25-6.74,7.5-12.84,12.97-18.65,12.57-13.36,26.26-24.83,40.71-34.12,1.16-.75,2.31-1.52,3.46-2.29,3.07-2.07,5.98-4.03,9.12-5.48,9.82-4.54,20.73-6.3,31.04-7.52,1.9-.22,3.8-.32,6-.43.14,0,.28-.01.42-.02-.08.28-.16.55-.23.82-.79,2.78-1.53,5.41-1.91,8.17-1.48,10.94-2.64,20.98-3.55,30.72-1.58,16.87-1.17,33.95,1.21,50.76.43,3.04,1.43,5.93,2.39,8.73.76,2.2,1.47,4.27,1.93,6.39,1.27,5.96,3.59,11.95,7.07,18.32,4.32,7.88,9.23,16.11,15.95,22.92,5.99,6.08,14.17,13.82,24.33,19.73,20.97,12.2,45.02,16.18,69.53,11.51,22.62-4.31,44.86-16.06,62.63-33.09,9.83-9.41,18.5-18.07,25.1-28.78,1.07-1.74,2.16-3.46,3.24-5.19,2.87-4.56,5.83-9.28,8.47-14.1,3.66-6.71,6.86-13.65,10.08-20.76.89-1.96,1.28-4.04,1.65-6.05.1-.51.19-1.02.29-1.51.61-2.9-.62-5.58-3.37-7.33-3.74-2.39-6.95.53-8.02,1.5-1.17,1.09-2.15,2.24-2.9,3.44-4.43,7.09-9.26,14.54-15.26,20.96-5.52,5.89-12.14,12.45-20.82,15.74-3.21,1.22-6.74.91-9.7-.84-2.98-1.76-4.96-4.74-5.44-8.18-.18-1.26-.17-2.59-.16-4,0-.85,0-1.73-.03-2.61-.01-.35,0-.72,0-1.1.03-2.06.09-5.9-3.96-6.88-1.87-.46-5.41-.39-8.12,5.14-4.2,8.62-10.53,16.05-16.65,23.22-2.21,2.6-4.5,5.28-6.67,8-3.26,4.09-7.47,7.69-11.53,11.18-1.17,1-2.33,2-3.48,3.01-3.4,3-6.49,5.31-9.44,7.07-3.19,1.89-6.59,3.62-9.89,5.29-1.84.93-3.73,1.89-5.59,2.88-4.02,2.14-8.48,3.48-14.89,4.48-9.96,1.55-17.82.19-24.75-4.29-6.23-4.03-10.49-9.29-13.02-16.1-6.19-16.58-7.81-34.93-4.57-51.66,1.66-8.56,4.18-19.17,9.02-25.38,4.37-5.61,12.85-5.29,17.74-1.49,2.03,1.58,3.84,3.44,5.76,5.42,1.15,1.18,2.34,2.4,3.58,3.57l.16.15c1.38,1.29,2.95,2.75,4.96,3.37,2.98.91,4.71-.18,5.49-.92.8-.76,2.02-2.51,1.21-5.73-.11-.44-.22-.89-.33-1.34-.57-2.38-1.17-4.83-2.36-7.09-2.12-3.97-2.82-8.19-3.23-11.8-.2-1.81-.41-3.62-.62-5.42-.8-6.93-1.62-14.09-2.09-21.14-.29-4.26-.22-8.51-.15-13.02.02-1.41.05-2.83.06-4.26ZM788.86,150.42c-.12,2.03,1.6,4.3,3.21,5.06,1.21.58,2.49.79,3.61.98.68.11,1.33.22,1.89.4.71.21,1.42.42,2.14.62,2.22.62,4.31,1.21,6.07,2.21,1.72.98,2.87,2.46,3.22,4.18.36,1.72-.1,3.54-1.29,5.12-1.34,1.78-3.43,3.28-5.29,4.52-6.65,4.38-14.49,5.31-21.27,5.64-8.62.42-17.23.86-25.84,1.31-4.18.22-8.36.43-12.55.65,1.05-18.76,4.95-36.55,8.28-50.1l.32-1.3c1.6-6.56,3.26-13.34,6.7-19.31,1.27-2.21,1.95-4.63,2.61-6.97.43-1.53.84-2.98,1.39-4.33.7-1.71,1.39-3.42,2.07-5.14,2.46-6.14,5-12.49,8.1-18.35,3.49-6.6,7.9-13.36,13.09-20.08,4.43-5.72,8.99-10.38,13.53-13.84,9.08-6.91,17.5-10.23,26.13-10.23,1.6,0,3.21.11,4.82.34,3.64.5,6.88.79,9.91.89,6.86.23,12.87,3.24,18.36,9.22,13.26,14.43,13.66,30.96,11.66,42.29-3.74,21.18-19.12,42.08-38.28,52.02-3.35,1.74-7.15,2.98-10.82,4.18-1.17.38-2.34.77-3.51,1.17-6.51,2.25-12.53,3.33-18.41,3.23-2.2-.02-4.31.32-6.15,1.03-1.68.65-3.58,2.59-3.71,4.6Z"/>
  <path class="cls-1" d="M439.96,158.24l20.51-28.01c1.84-2.51,6.41-.65,6.04,2.45l-4.18,34.5c-.75,6.16,2.27,12.55,7.9,16.72l25.21,18.72c2.69,1.99,1.15,5.69-2.14,5.16l-27.79-4.43c-6.86-1.1-13.47,1.2-17.3,6.01l-16.73,20.99c-1.86,2.34-6.21.59-5.99-2.41l2.1-28.56c.47-6.39-3.04-12.86-9.11-16.8l-20.74-13.46c-2.74-1.78-1.67-5.49,1.54-5.34l25.37,1.2c6.28.3,11.99-2.22,15.3-6.74Z"/>
</svg>