<?xml version="1.0" encoding="UTF-8"?>
<svg id="Layer_1" data-name="Layer 1" xmlns="http://www.w3.org/2000/svg" viewBox="0 0 16 10.05">
  <defs>
    <style>
      .cls-1 {
        fill: #f9f5ed;
      }
    </style>
  </defs>
  <path class="cls-1" d="M4.65,0c.46,0,.89.04,1.28.14.39.07.71.22,1,.39s.5.43.64.75c.14.32.22.71.22,1.14,0,.5-.11.92-.36,1.24-.22.32-.57.61-1,.82.61.18,1.07.5,1.35.92.28.43.46.96.46,1.56,0,.5-.1.92-.28,1.28-.18.36-.45.66-.78.89-.32.22-.71.39-1.14.5-.42.11-.85.17-1.28.18H0S0,0,0,0h4.65ZM4.37,3.98c.39,0,.71-.11.96-.28.25-.18.36-.5.36-.89,0-.22-.03-.43-.11-.57-.08-.14-.19-.26-.32-.36-.14-.08-.3-.14-.46-.18-.18-.03-.36-.03-.57-.03h-2.06v2.31s2.2,0,2.2,0h0ZM4.47,8.17c.22,0,.43-.03.61-.07.18-.03.36-.11.5-.22s.25-.22.36-.39c.07-.18.14-.39.14-.64,0-.5-.14-.85-.43-1.1-.28-.22-.68-.32-1.14-.32h-2.34v2.73h2.31,0ZM11.33,8.14c.29.28.71.43,1.28.43.39,0,.75-.11,1.03-.29.28-.21.46-.43.53-.64h1.74c-.29.85-.71,1.46-1.28,1.85-.57.35-1.24.57-2.06.57-.52,0-1.04-.09-1.53-.28-.44-.16-.83-.43-1.14-.78-.33-.33-.57-.73-.71-1.17-.18-.46-.25-.96-.25-1.53,0-.53.07-1.03.25-1.49.18-.46.43-.85.75-1.21.32-.32.71-.61,1.14-.78.47-.19.98-.29,1.49-.28.61,0,1.14.11,1.6.36.46.25.82.53,1.1.96.28.39.5.85.64,1.35.07.5.1,1,.07,1.56h-5.15c0,.58.21,1.11.5,1.4M13.57,4.4c-.25-.25-.64-.39-1.1-.39-.32,0-.57.07-.78.18s-.36.25-.5.39c-.13.14-.22.31-.25.5-.04.18-.07.32-.07.46h3.2c-.07-.53-.25-.88-.5-1.13h0ZM10.44.68h3.98v.96h-3.98v-.96Z"/>
</svg>