<?xml version="1.0" encoding="UTF-8"?>
<svg id="Layer_1" data-name="Layer 1" xmlns="http://www.w3.org/2000/svg" viewBox="0 0 302.52 307.71">
  <path d="M131.62,87.71L193.27,3.51c5.52-7.54,19.28-1.95,18.15,7.37l-12.57,103.69c-2.24,18.5,6.83,37.71,23.74,50.27l75.79,56.27c8.08,6,3.47,17.1-6.44,15.52l-83.54-13.33c-20.63-3.29-40.48,3.6-52,18.06l-50.29,63.1c-5.61,7.03-18.66,1.78-17.99-7.25l6.32-85.83c1.41-19.2-9.13-38.65-27.39-50.5L4.71,120.41c-8.24-5.35-5.02-16.51,4.63-16.05l76.27,3.62c18.86.89,36.05-6.68,46-20.27Z"/>
</svg>