<?xml version="1.0" encoding="UTF-8"?>
<svg id="Layer_1" data-name="Layer 1" xmlns="http://www.w3.org/2000/svg" viewBox="0 0 16 16">
  <defs>
    <style>
      .cls-1 {
        fill: #f9f5ed;
      }
    </style>
  </defs>
  <path class="cls-1" d="M0,1.15C0,.51.53,0,1.17,0h13.65c.65,0,1.18.51,1.18,1.15v13.71c0,.63-.53,1.15-1.18,1.15H1.17c-.65,0-1.17-.51-1.17-1.15V1.15ZM4.94,13.39v-7.22h-2.4v7.22h2.4ZM3.74,5.18c.84,0,1.36-.55,1.36-1.25-.01-.71-.52-1.25-1.34-1.25s-1.36.54-1.36,1.25.52,1.25,1.33,1.25h.02ZM8.65,13.39v-4.03c0-.22.02-.43.08-.59.17-.43.57-.88,1.23-.88.87,0,1.22.66,1.22,1.63v3.86h2.4v-4.14c0-2.22-1.18-3.25-2.76-3.25-1.27,0-1.85.7-2.16,1.19v.03h-.02l.02-.03v-1.02h-2.4c.03.68,0,7.22,0,7.22h2.4Z"/>
</svg>